<svg xmlns="http://www.w3.org/2000/svg" xmlns:xlink="http://www.w3.org/1999/xlink" width="500" zoomAndPan="magnify" viewBox="0 0 375 374.999991" height="500" preserveAspectRatio="xMidYMid meet" version="1.0"><defs><g/><clipPath id="7858da4fc2"><path d="M 131 117 L 166.792969 117 L 166.792969 187.1875 L 131 187.1875 Z M 131 117 " clip-rule="nonzero"/></clipPath><clipPath id="082e7559a2"><path d="M 110.542969 110.6875 L 161 110.6875 L 161 143 L 110.542969 143 Z M 110.542969 110.6875 " clip-rule="nonzero"/></clipPath><clipPath id="7ab20767fa"><path d="M 174 109.546875 L 198 109.546875 L 198 186.796875 L 174 186.796875 Z M 174 109.546875 " clip-rule="nonzero"/></clipPath><clipPath id="9c6edf7db5"><path d="M 206.496094 110.6875 L 260.425781 110.6875 L 260.425781 187.1875 L 206.496094 187.1875 Z M 206.496094 110.6875 " clip-rule="nonzero"/></clipPath></defs><rect x="-37.5" width="450" fill="#ffffff" y="-37.499999" height="449.999989" fill-opacity="1"/><rect x="-37.5" width="450" fill="#ffffff" y="-37.499999" height="449.999989" fill-opacity="1"/><rect x="-37.5" width="450" fill="#ffffff" y="-37.499999" height="449.999989" fill-opacity="1"/><g fill="#545454" fill-opacity="1"><g transform="translate(123.246648, 228.280199)"><g><path d="M 5.421875 0 L 1.453125 0 L 1.453125 -25.328125 L 5.421875 -25.328125 L 5.421875 -14.46875 L 9.953125 -14.46875 L 9.953125 -25.328125 L 14 -25.328125 L 14 0 L 9.953125 0 L 9.953125 -10.859375 L 5.421875 -10.859375 Z M 5.421875 0 "/></g></g></g><g fill="#545454" fill-opacity="1"><g transform="translate(139.274098, 228.280199)"><g><path d="M 14.328125 0 L 10.3125 0 L 9.625 -4.59375 L 4.734375 -4.59375 L 4.046875 0 L 0.390625 0 L 4.453125 -25.328125 L 10.265625 -25.328125 Z M 5.25 -8.03125 L 9.078125 -8.03125 L 7.15625 -20.828125 Z M 5.25 -8.03125 "/></g></g></g><g fill="#545454" fill-opacity="1"><g transform="translate(154.577956, 228.280199)"><g><path d="M 4.984375 -18.34375 L 4.984375 0 L 1.40625 0 L 1.40625 -25.328125 L 6.40625 -25.328125 L 10.484375 -10.171875 L 10.484375 -25.328125 L 14.03125 -25.328125 L 14.03125 0 L 9.953125 0 Z M 4.984375 -18.34375 "/></g></g></g><g fill="#545454" fill-opacity="1"><g transform="translate(170.605404, 228.280199)"><g><path d="M 1.453125 -25.328125 L 7.734375 -25.328125 C 9.742188 -25.328125 11.234375 -24.796875 12.203125 -23.734375 C 13.179688 -22.671875 13.671875 -21.113281 13.671875 -19.0625 L 13.671875 -6.25 C 13.671875 -4.207031 13.179688 -2.65625 12.203125 -1.59375 C 11.234375 -0.53125 9.742188 0 7.734375 0 L 1.453125 0 Z M 5.421875 -21.703125 L 5.421875 -3.625 L 7.671875 -3.625 C 8.296875 -3.625 8.785156 -3.800781 9.140625 -4.15625 C 9.503906 -4.519531 9.6875 -5.160156 9.6875 -6.078125 L 9.6875 -19.25 C 9.6875 -20.164062 9.503906 -20.800781 9.140625 -21.15625 C 8.785156 -21.519531 8.296875 -21.703125 7.671875 -21.703125 Z M 5.421875 -21.703125 "/></g></g></g><g fill="#545454" fill-opacity="1"><g transform="translate(185.945448, 228.280199)"><g><path d="M 5.171875 -8.390625 L 0.140625 -25.328125 L 4.296875 -25.328125 L 7.34375 -13.78125 L 10.375 -25.328125 L 14.171875 -25.328125 L 9.15625 -8.390625 L 9.15625 0 L 5.171875 0 Z M 5.171875 -8.390625 "/></g></g></g><g fill="#545454" fill-opacity="1"><g transform="translate(200.85134, 228.280199)"><g><path d="M 9.875 -7.34375 L 12.59375 -25.328125 L 18.125 -25.328125 L 18.125 0 L 14.359375 0 L 14.359375 -18.15625 L 11.609375 0 L 7.84375 0 L 4.890625 -17.90625 L 4.890625 0 L 1.40625 0 L 1.40625 -25.328125 L 6.9375 -25.328125 Z M 9.875 -7.34375 "/></g></g></g><g fill="#545454" fill-opacity="1"><g transform="translate(221.003237, 228.280199)"><g><path d="M 14.328125 0 L 10.3125 0 L 9.625 -4.59375 L 4.734375 -4.59375 L 4.046875 0 L 0.390625 0 L 4.453125 -25.328125 L 10.265625 -25.328125 Z M 5.25 -8.03125 L 9.078125 -8.03125 L 7.15625 -20.828125 Z M 5.25 -8.03125 "/></g></g></g><g fill="#545454" fill-opacity="1"><g transform="translate(236.307096, 228.280199)"><g><path d="M 4.984375 -18.34375 L 4.984375 0 L 1.40625 0 L 1.40625 -25.328125 L 6.40625 -25.328125 L 10.484375 -10.171875 L 10.484375 -25.328125 L 14.03125 -25.328125 L 14.03125 0 L 9.953125 0 Z M 4.984375 -18.34375 "/></g></g></g><path stroke-linecap="round" transform="matrix(0.752995, 0, 0, 0.75, 166.951458, 240.393983)" fill="none" stroke-linejoin="miter" d="M 0.500226 0.500732 L 54.295832 0.500732 " stroke="#545454" stroke-width="1" stroke-opacity="1" stroke-miterlimit="4"/><path fill="#f57f25" d="M 119.136719 135.582031 C 118.253906 135.582031 117.539062 136.300781 117.539062 137.191406 C 117.539062 138.078125 118.253906 138.800781 119.136719 138.800781 C 120.019531 138.800781 120.734375 138.078125 120.734375 137.191406 C 120.734375 136.300781 120.019531 135.582031 119.136719 135.582031 Z M 119.136719 135.582031 " fill-opacity="1" fill-rule="nonzero"/><g clip-path="url(#7858da4fc2)"><path fill="#7e7f7f" d="M 162.070312 117.5625 L 160.132812 117.5625 L 160.132812 120.125 L 162.074219 120.125 C 163.269531 120.125 164.242188 121.105469 164.242188 122.308594 L 164.242188 129.238281 C 164.242188 130.292969 163.742188 131.296875 162.90625 131.925781 L 137.234375 148.445312 C 135.515625 149.746094 134.488281 151.816406 134.488281 153.976562 L 134.488281 159.066406 L 133.453125 159.066406 C 132.421875 159.066406 131.589844 159.902344 131.589844 160.941406 L 131.589844 185.269531 C 131.589844 186.304688 132.421875 187.144531 133.453125 187.144531 L 138.222656 187.144531 C 139.253906 187.144531 140.085938 186.300781 140.085938 185.269531 L 140.085938 160.941406 C 140.085938 159.902344 139.253906 159.066406 138.222656 159.066406 L 137.035156 159.066406 L 137.035156 153.980469 C 137.035156 152.617188 137.679688 151.316406 138.761719 150.5 L 164.4375 133.980469 C 165.910156 132.867188 166.789062 131.09375 166.789062 129.242188 L 166.789062 122.308594 C 166.789062 119.691406 164.671875 117.5625 162.070312 117.5625 Z M 137.085938 182.953125 C 137.085938 183.648438 136.53125 184.210938 135.839844 184.210938 C 135.152344 184.210938 134.589844 183.648438 134.589844 182.953125 C 134.589844 182.261719 135.148438 181.699219 135.839844 181.699219 C 136.53125 181.699219 137.085938 182.257812 137.085938 182.953125 Z M 137.085938 182.953125 " fill-opacity="1" fill-rule="nonzero"/></g><g clip-path="url(#082e7559a2)"><path fill="#f57f25" d="M 160.121094 117.5625 L 160.121094 122.472656 L 160.121094 116.003906 C 160.121094 114.8125 159.25 113.808594 158.082031 113.648438 L 156.835938 113.472656 L 156.835938 113.175781 C 156.832031 113.085938 156.828125 112.992188 156.816406 112.902344 C 156.8125 112.882812 156.808594 112.855469 156.804688 112.832031 C 156.796875 112.761719 156.785156 112.691406 156.769531 112.628906 C 156.765625 112.609375 156.757812 112.585938 156.753906 112.566406 C 156.738281 112.488281 156.710938 112.414062 156.683594 112.339844 C 156.683594 112.335938 156.683594 112.328125 156.675781 112.320312 C 156.375 111.519531 155.671875 110.917969 154.8125 110.765625 C 154.796875 110.761719 154.785156 110.761719 154.769531 110.757812 C 154.648438 110.742188 154.523438 110.726562 154.394531 110.726562 L 112.984375 110.726562 C 111.636719 110.726562 110.542969 111.828125 110.542969 113.183594 L 110.542969 125.765625 C 110.542969 126.144531 110.632812 126.507812 110.789062 126.832031 C 110.816406 126.894531 110.851562 126.953125 110.882812 127.011719 C 110.929688 127.09375 110.988281 127.171875 111.042969 127.246094 C 111.109375 127.332031 111.183594 127.421875 111.257812 127.5 C 111.3125 127.554688 111.375 127.605469 111.433594 127.660156 C 111.855469 128.011719 112.394531 128.21875 112.984375 128.21875 L 117.542969 128.21875 L 117.542969 131.789062 C 117.542969 132.832031 118.390625 133.683594 119.421875 133.683594 C 120.457031 133.683594 121.304688 132.832031 121.304688 131.789062 L 121.304688 128.21875 L 123 128.21875 L 123 140.691406 C 123 141.835938 123.933594 142.773438 125.070312 142.773438 C 126.207031 142.773438 127.140625 141.835938 127.140625 140.691406 L 127.140625 128.214844 L 154.402344 128.214844 C 154.53125 128.214844 154.65625 128.199219 154.78125 128.179688 C 154.792969 128.179688 154.804688 128.179688 154.820312 128.171875 C 155.679688 128.023438 156.382812 127.421875 156.683594 126.621094 C 156.6875 126.617188 156.6875 126.609375 156.691406 126.601562 C 156.71875 126.523438 156.742188 126.449219 156.761719 126.371094 C 156.765625 126.351562 156.773438 126.332031 156.777344 126.3125 C 156.792969 126.246094 156.804688 126.175781 156.8125 126.105469 C 156.816406 126.082031 156.820312 126.0625 156.824219 126.035156 C 156.835938 125.945312 156.84375 125.855469 156.84375 125.761719 L 156.84375 125.46875 L 158.089844 125.292969 C 158.230469 125.269531 158.375 125.238281 158.511719 125.195312 C 158.777344 125.105469 159.03125 124.964844 159.246094 124.792969 C 159.414062 124.65625 159.5625 124.488281 159.6875 124.308594 C 159.746094 124.222656 159.800781 124.132812 159.847656 124.042969 C 160.023438 123.710938 160.125 123.335938 160.125 122.941406 L 160.125 120.125 L 160.136719 120.125 L 160.136719 117.5625 Z M 160.121094 117.5625 " fill-opacity="1" fill-rule="nonzero"/></g><path fill="#f57f25" d="M 124.894531 147.707031 C 124.894531 147.710938 124.890625 147.714844 124.890625 147.722656 C 124.449219 149.445312 122.1875 150.378906 122.1875 152.609375 C 122.1875 154.113281 123.394531 155.335938 124.890625 155.339844 L 124.902344 155.339844 C 126.394531 155.335938 127.609375 154.113281 127.609375 152.609375 C 127.609375 150.378906 125.347656 149.449219 124.902344 147.722656 C 124.902344 147.71875 124.902344 147.710938 124.894531 147.707031 Z M 124.894531 147.707031 " fill-opacity="1" fill-rule="nonzero"/><path fill="#ffffff" d="M 153.625 114.175781 C 153.53125 114.230469 153.429688 114.265625 153.324219 114.285156 C 153.300781 114.285156 153.277344 114.292969 153.253906 114.300781 C 153.230469 114.308594 153.207031 114.3125 153.179688 114.3125 L 153.179688 114.316406 L 114.609375 114.316406 C 114.417969 114.316406 114.246094 114.257812 114.097656 114.15625 C 113.855469 113.992188 113.695312 113.710938 113.695312 113.394531 C 113.695312 113.144531 113.792969 112.910156 113.960938 112.742188 C 114.128906 112.574219 114.359375 112.472656 114.605469 112.472656 L 153.179688 112.472656 C 153.425781 112.472656 153.644531 112.574219 153.804688 112.734375 C 153.902344 112.832031 153.980469 112.949219 154.027344 113.082031 C 154.0625 113.183594 154.089844 113.28125 154.089844 113.394531 C 154.089844 113.734375 153.898438 114.019531 153.625 114.175781 Z M 153.625 114.175781 " fill-opacity="1" fill-rule="nonzero"/><g clip-path="url(#7ab20767fa)"><path fill="#7e7f7f" d="M 197.230469 117.523438 C 195.746094 113.132812 191.894531 110.203125 187.5625 109.625 L 190.878906 119.421875 C 191.277344 120.605469 190.636719 121.882812 189.445312 122.28125 L 183.867188 124.140625 C 182.675781 124.535156 181.386719 123.902344 180.984375 122.71875 L 177.667969 112.921875 C 174.566406 115.980469 173.28125 120.621094 174.769531 125.011719 C 175.816406 128.105469 178.035156 130.476562 180.773438 131.808594 C 183.441406 133.113281 185.132812 135.800781 185.042969 138.75 L 183.53125 181.492188 C 183.449219 184.191406 185.53125 186.589844 188.25 186.65625 C 191.042969 186.722656 193.304688 184.449219 193.21875 181.695312 L 191.605469 135.601562 C 191.539062 133.453125 192.40625 131.375 194 129.925781 C 197.347656 126.886719 198.773438 122.070312 197.230469 117.523438 Z M 188.371094 180.835938 C 187.347656 180.835938 186.523438 180.011719 186.523438 179 C 186.523438 177.988281 187.351562 177.167969 188.371094 177.167969 C 189.390625 177.167969 190.21875 177.988281 190.21875 179 C 190.21875 180.015625 189.390625 180.835938 188.371094 180.835938 Z M 188.371094 180.835938 " fill-opacity="1" fill-rule="nonzero"/></g><g clip-path="url(#9c6edf7db5)"><path fill="#f57f25" d="M 215.984375 112.929688 C 218.671875 112.929688 221.019531 112.03125 222.324219 110.6875 L 240.195312 110.6875 C 251.316406 110.6875 260.414062 119.804688 260.414062 130.953125 C 260.414062 131.570312 259.570312 131.726562 259.316406 131.164062 C 256.246094 124.277344 249.34375 119.453125 241.371094 119.453125 L 236.21875 119.453125 C 234.578125 119.453125 233.226562 120.742188 233.144531 122.382812 L 232.777344 129.625 L 231.007812 129.625 L 231.007812 183.164062 C 231.007812 185.382812 229.210938 187.1875 226.992188 187.1875 L 226.726562 187.1875 C 224.511719 187.1875 222.710938 185.382812 222.710938 183.164062 L 222.710938 129.625 L 221.367188 129.625 L 220.949219 121.324219 C 220.875 119.914062 219.890625 118.699219 218.519531 118.382812 C 217.730469 118.203125 216.878906 118.101562 215.988281 118.101562 C 213.949219 118.101562 212.105469 118.617188 210.761719 119.453125 L 206.445312 119.453125 L 206.445312 110.6875 L 209.648438 110.6875 C 210.953125 112.03125 213.296875 112.929688 215.984375 112.929688 Z M 226.859375 182.492188 C 227.777344 182.492188 228.523438 181.746094 228.523438 180.824219 C 228.523438 179.902344 227.777344 179.15625 226.859375 179.15625 C 225.941406 179.15625 225.195312 179.902344 225.195312 180.824219 C 225.195312 181.746094 225.941406 182.492188 226.859375 182.492188 Z M 226.859375 182.492188 " fill-opacity="1" fill-rule="nonzero"/></g><g fill="#545454" fill-opacity="1"><g transform="translate(140.286135, 257.623626)"><g><path d="M 3.15625 -3.109375 L 1.796875 -3.109375 L 1.796875 0 L 0.828125 0 L 0.828125 -7.703125 L 2.984375 -7.703125 C 3.742188 -7.703125 4.316406 -7.503906 4.703125 -7.109375 C 5.085938 -6.710938 5.28125 -6.132812 5.28125 -5.375 C 5.28125 -4.90625 5.175781 -4.492188 4.96875 -4.140625 C 4.757812 -3.785156 4.460938 -3.519531 4.078125 -3.34375 L 5.5625 -0.0625 L 5.5625 0 L 4.53125 0 Z M 1.796875 -3.9375 L 2.984375 -3.9375 C 3.378906 -3.9375 3.695312 -4.066406 3.9375 -4.328125 C 4.1875 -4.597656 4.3125 -4.945312 4.3125 -5.375 C 4.3125 -6.363281 3.863281 -6.859375 2.96875 -6.859375 L 1.796875 -6.859375 Z M 1.796875 -3.9375 "/></g></g></g><g fill="#545454" fill-opacity="1"><g transform="translate(147.810602, 257.623626)"><g><path d="M 4.515625 -3.5625 L 1.796875 -3.5625 L 1.796875 -0.828125 L 4.96875 -0.828125 L 4.96875 0 L 0.828125 0 L 0.828125 -7.703125 L 4.921875 -7.703125 L 4.921875 -6.859375 L 1.796875 -6.859375 L 1.796875 -4.390625 L 4.515625 -4.390625 Z M 4.515625 -3.5625 "/></g></g></g><g fill="#545454" fill-opacity="1"><g transform="translate(154.964893, 257.623626)"><g><path d="M 1.796875 -3.015625 L 1.796875 0 L 0.828125 0 L 0.828125 -7.703125 L 3.28125 -7.703125 C 4 -7.703125 4.5625 -7.484375 4.96875 -7.046875 C 5.375 -6.617188 5.578125 -6.050781 5.578125 -5.34375 C 5.578125 -4.601562 5.382812 -4.03125 5 -3.625 C 4.613281 -3.226562 4.066406 -3.023438 3.359375 -3.015625 Z M 1.796875 -3.84375 L 3.28125 -3.84375 C 3.707031 -3.84375 4.035156 -3.96875 4.265625 -4.21875 C 4.492188 -4.476562 4.609375 -4.847656 4.609375 -5.328125 C 4.609375 -5.796875 4.488281 -6.164062 4.25 -6.4375 C 4.019531 -6.71875 3.695312 -6.859375 3.28125 -6.859375 L 1.796875 -6.859375 Z M 1.796875 -3.84375 "/></g></g></g><g fill="#545454" fill-opacity="1"><g transform="translate(162.743195, 257.623626)"><g><path d="M 4.421875 -2.015625 L 1.8125 -2.015625 L 1.21875 0 L 0.234375 0 L 2.703125 -7.703125 L 3.53125 -7.703125 L 6.015625 0 L 5.03125 0 Z M 2.078125 -2.84375 L 4.171875 -2.84375 L 3.125 -6.34375 Z M 2.078125 -2.84375 "/></g></g></g><g fill="#545454" fill-opacity="1"><g transform="translate(170.759467, 257.623626)"><g><path d="M 1.84375 0 L 0.875 0 L 0.875 -7.703125 L 1.84375 -7.703125 Z M 1.84375 0 "/></g></g></g><g fill="#545454" fill-opacity="1"><g transform="translate(175.243204, 257.623626)"><g><path d="M 3.15625 -3.109375 L 1.796875 -3.109375 L 1.796875 0 L 0.828125 0 L 0.828125 -7.703125 L 2.984375 -7.703125 C 3.742188 -7.703125 4.316406 -7.503906 4.703125 -7.109375 C 5.085938 -6.710938 5.28125 -6.132812 5.28125 -5.375 C 5.28125 -4.90625 5.175781 -4.492188 4.96875 -4.140625 C 4.757812 -3.785156 4.460938 -3.519531 4.078125 -3.34375 L 5.5625 -0.0625 L 5.5625 0 L 4.53125 0 Z M 1.796875 -3.9375 L 2.984375 -3.9375 C 3.378906 -3.9375 3.695312 -4.066406 3.9375 -4.328125 C 4.1875 -4.597656 4.3125 -4.945312 4.3125 -5.375 C 4.3125 -6.363281 3.863281 -6.859375 2.96875 -6.859375 L 1.796875 -6.859375 Z M 1.796875 -3.9375 "/></g></g></g><g fill="#545454" fill-opacity="1"><g transform="translate(182.767671, 257.623626)"><g/></g></g><g fill="#545454" fill-opacity="1"><g transform="translate(187.024016, 257.623626)"><g><path d="M 4.1875 -1.953125 C 4.1875 -2.328125 4.082031 -2.617188 3.875 -2.828125 C 3.664062 -3.035156 3.289062 -3.234375 2.75 -3.421875 C 2.207031 -3.617188 1.789062 -3.820312 1.5 -4.03125 C 1.21875 -4.25 1.003906 -4.492188 0.859375 -4.765625 C 0.722656 -5.035156 0.65625 -5.347656 0.65625 -5.703125 C 0.65625 -6.316406 0.859375 -6.816406 1.265625 -7.203125 C 1.671875 -7.597656 2.203125 -7.796875 2.859375 -7.796875 C 3.304688 -7.796875 3.707031 -7.695312 4.0625 -7.5 C 4.414062 -7.300781 4.6875 -7.019531 4.875 -6.65625 C 5.070312 -6.300781 5.171875 -5.90625 5.171875 -5.46875 L 4.1875 -5.46875 C 4.1875 -5.945312 4.070312 -6.316406 3.84375 -6.578125 C 3.613281 -6.835938 3.285156 -6.96875 2.859375 -6.96875 C 2.472656 -6.96875 2.171875 -6.859375 1.953125 -6.640625 C 1.734375 -6.421875 1.625 -6.113281 1.625 -5.71875 C 1.625 -5.394531 1.738281 -5.125 1.96875 -4.90625 C 2.207031 -4.6875 2.570312 -4.488281 3.0625 -4.3125 C 3.8125 -4.0625 4.347656 -3.753906 4.671875 -3.390625 C 5.003906 -3.023438 5.171875 -2.546875 5.171875 -1.953125 C 5.171875 -1.328125 4.96875 -0.828125 4.5625 -0.453125 C 4.15625 -0.078125 3.601562 0.109375 2.90625 0.109375 C 2.457031 0.109375 2.039062 0.0078125 1.65625 -0.1875 C 1.28125 -0.382812 0.984375 -0.660156 0.765625 -1.015625 C 0.554688 -1.367188 0.453125 -1.773438 0.453125 -2.234375 L 1.421875 -2.234375 C 1.421875 -1.753906 1.550781 -1.378906 1.8125 -1.109375 C 2.082031 -0.847656 2.445312 -0.71875 2.90625 -0.71875 C 3.332031 -0.71875 3.648438 -0.828125 3.859375 -1.046875 C 4.078125 -1.265625 4.1875 -1.566406 4.1875 -1.953125 Z M 4.1875 -1.953125 "/></g></g></g><g fill="#545454" fill-opacity="1"><g transform="translate(194.410989, 257.623626)"><g><path d="M 4.515625 -3.5625 L 1.796875 -3.5625 L 1.796875 -0.828125 L 4.96875 -0.828125 L 4.96875 0 L 0.828125 0 L 0.828125 -7.703125 L 4.921875 -7.703125 L 4.921875 -6.859375 L 1.796875 -6.859375 L 1.796875 -4.390625 L 4.515625 -4.390625 Z M 4.515625 -3.5625 "/></g></g></g><g fill="#545454" fill-opacity="1"><g transform="translate(201.56528, 257.623626)"><g><path d="M 3.15625 -3.109375 L 1.796875 -3.109375 L 1.796875 0 L 0.828125 0 L 0.828125 -7.703125 L 2.984375 -7.703125 C 3.742188 -7.703125 4.316406 -7.503906 4.703125 -7.109375 C 5.085938 -6.710938 5.28125 -6.132812 5.28125 -5.375 C 5.28125 -4.90625 5.175781 -4.492188 4.96875 -4.140625 C 4.757812 -3.785156 4.460938 -3.519531 4.078125 -3.34375 L 5.5625 -0.0625 L 5.5625 0 L 4.53125 0 Z M 1.796875 -3.9375 L 2.984375 -3.9375 C 3.378906 -3.9375 3.695312 -4.066406 3.9375 -4.328125 C 4.1875 -4.597656 4.3125 -4.945312 4.3125 -5.375 C 4.3125 -6.363281 3.863281 -6.859375 2.96875 -6.859375 L 1.796875 -6.859375 Z M 1.796875 -3.9375 "/></g></g></g><g fill="#545454" fill-opacity="1"><g transform="translate(209.089747, 257.623626)"><g><path d="M 3.03125 -1.484375 L 4.796875 -7.703125 L 5.859375 -7.703125 L 3.453125 0 L 2.609375 0 L 0.21875 -7.703125 L 1.28125 -7.703125 Z M 3.03125 -1.484375 "/></g></g></g><g fill="#545454" fill-opacity="1"><g transform="translate(216.931507, 257.623626)"><g><path d="M 1.84375 0 L 0.875 0 L 0.875 -7.703125 L 1.84375 -7.703125 Z M 1.84375 0 "/></g></g></g><g fill="#545454" fill-opacity="1"><g transform="translate(221.415245, 257.623626)"><g><path d="M 5.65625 -2.4375 C 5.613281 -1.613281 5.378906 -0.984375 4.953125 -0.546875 C 4.535156 -0.109375 3.941406 0.109375 3.171875 0.109375 C 2.398438 0.109375 1.785156 -0.179688 1.328125 -0.765625 C 0.878906 -1.359375 0.65625 -2.15625 0.65625 -3.15625 L 0.65625 -4.5625 C 0.65625 -5.5625 0.890625 -6.347656 1.359375 -6.921875 C 1.828125 -7.503906 2.460938 -7.796875 3.265625 -7.796875 C 4.015625 -7.796875 4.59375 -7.570312 5 -7.125 C 5.40625 -6.6875 5.625 -6.050781 5.65625 -5.21875 L 4.671875 -5.21875 C 4.628906 -5.851562 4.5 -6.300781 4.28125 -6.5625 C 4.0625 -6.832031 3.722656 -6.96875 3.265625 -6.96875 C 2.742188 -6.96875 2.34375 -6.757812 2.0625 -6.34375 C 1.78125 -5.9375 1.640625 -5.335938 1.640625 -4.546875 L 1.640625 -3.140625 C 1.640625 -2.359375 1.769531 -1.757812 2.03125 -1.34375 C 2.289062 -0.925781 2.671875 -0.71875 3.171875 -0.71875 C 3.679688 -0.71875 4.046875 -0.84375 4.265625 -1.09375 C 4.484375 -1.34375 4.617188 -1.789062 4.671875 -2.4375 Z M 5.65625 -2.4375 "/></g></g></g><g fill="#545454" fill-opacity="1"><g transform="translate(229.331035, 257.623626)"><g><path d="M 4.515625 -3.5625 L 1.796875 -3.5625 L 1.796875 -0.828125 L 4.96875 -0.828125 L 4.96875 0 L 0.828125 0 L 0.828125 -7.703125 L 4.921875 -7.703125 L 4.921875 -6.859375 L 1.796875 -6.859375 L 1.796875 -4.390625 L 4.515625 -4.390625 Z M 4.515625 -3.5625 "/></g></g></g></svg>